<svg version="1.2" xmlns="http://www.w3.org/2000/svg" viewBox="0 0 1000 1000" width="1000" height="1000">
	<title>9001175-ai</title>
	<style>
		.s0 { fill: #ebebeb } 
		.s1 { fill: #c7c7c7 } 
		.s2 { fill: #ffffff } 
		.s3 { fill: #dbdbdb } 
		.s4 { fill: #a6a6a6 } 
		.s5 { fill: #263238 } 
		.s6 { opacity: .1;fill: #000000 } 
		.s7 { fill: #ffc727 } 
		.s8 { fill: #000000 } 
		.s9 { opacity: .3;fill: #000000 } 
		.s10 { fill: #37474f } 
		.s11 { opacity: .2;fill: #000000 } 
	</style>
	<g id="Background Complete">
		<g id="&lt;Group&gt;" style="opacity: .4">
			<g id="&lt;Group&gt;">
				<path id="&lt;Path&gt;" class="s0" d="m838.9 859.3h-677.8v-737.8h677.8z"/>
				<path id="&lt;Path&gt;" class="s1" d="m806.9 761.3h-613.8v-602.8h613.8z"/>
				<path id="&lt;Path&gt;" class="s0" d="m806.9 631.9h-613.8v-21.4h613.8z"/>
				<path id="&lt;Path&gt;" class="s0" d="m806.9 471.9h-613.8v-21.5h613.8z"/>
				<path id="&lt;Path&gt;" class="s0" d="m806.9 311.8h-613.8v-21.4h613.8z"/>
			</g>
			<g id="&lt;Group&gt;">
				<g id="&lt;Group&gt;">
					<path id="&lt;Path&gt;" class="s2" d="m261.9 290.4h-47.4c-3.4 0-6.2-2.8-6.2-6.2v-47.4c0-3.4 2.8-6.2 6.2-6.2h47.4c3.4 0 6.2 2.8 6.2 6.2v47.4c0 3.4-2.8 6.2-6.2 6.2z"/>
				</g>
				<g id="&lt;Group&gt;">
					<path id="&lt;Path&gt;" class="s2" d="m323.6 290.4h-47.4c-3.4 0-6.2-2.8-6.2-6.2v-47.4c0-3.4 2.8-6.2 6.2-6.2h47.4c3.4 0 6.2 2.8 6.2 6.2v47.4c0 3.4-2.8 6.2-6.2 6.2z"/>
				</g>
				<g id="&lt;Group&gt;">
					<path id="&lt;Path&gt;" class="s2" d="m261.9 229.3h-47.4c-3.4 0-6.2-2.8-6.2-6.2v-47.4c0-3.4 2.8-6.2 6.2-6.2h47.4c3.4 0 6.2 2.8 6.2 6.2v47.4c0 3.4-2.8 6.2-6.2 6.2z"/>
				</g>
				<g id="&lt;Group&gt;">
					<path id="&lt;Path&gt;" class="s2" d="m323.6 229.3h-47.4c-3.4 0-6.2-2.8-6.2-6.2v-47.4c0-3.4 2.8-6.2 6.2-6.2h47.4c3.4 0 6.2 2.8 6.2 6.2v47.4c0 3.4-2.8 6.2-6.2 6.2z"/>
				</g>
				<g id="&lt;Group&gt;">
					<path id="&lt;Path&gt;" class="s2" d="m385.2 290.4h-47.4c-3.4 0-6.2-2.8-6.2-6.2v-47.4c0-3.4 2.8-6.2 6.2-6.2h47.4c3.4 0 6.2 2.8 6.2 6.2v47.4c0 3.4-2.8 6.2-6.2 6.2z"/>
				</g>
				<g id="&lt;Group&gt;">
					<path id="&lt;Path&gt;" class="s2" d="m385.2 229.3h-47.4c-3.4 0-6.2-2.8-6.2-6.2v-47.4c0-3.4 2.8-6.2 6.2-6.2h47.4c3.4 0 6.2 2.8 6.2 6.2v47.4c0 3.4-2.8 6.2-6.2 6.2z"/>
				</g>
				<path id="&lt;Path&gt;" class="s3" d="m394.1 260.5h-189.8v-47.4h189.8z"/>
			</g>
			<g id="&lt;Group&gt;">
				<g id="&lt;Group&gt;">
					<path id="&lt;Path&gt;" class="s2" d="m457.2 290.4h-47.4c-3.4 0-6.1-2.8-6.1-6.2v-47.4c0-3.4 2.7-6.2 6.1-6.2h47.4c3.5 0 6.2 2.8 6.2 6.2v47.4c0 3.4-2.7 6.2-6.2 6.2z"/>
				</g>
				<g id="&lt;Group&gt;">
					<path id="&lt;Path&gt;" class="s2" d="m518.9 290.4h-47.4c-3.4 0-6.2-2.8-6.2-6.2v-47.4c0-3.4 2.8-6.2 6.2-6.2h47.4c3.5 0 6.2 2.8 6.2 6.2v47.4c0 3.4-2.7 6.2-6.2 6.2z"/>
				</g>
				<g id="&lt;Group&gt;">
					<path id="&lt;Path&gt;" class="s2" d="m457.2 229.3h-47.4c-3.4 0-6.1-2.8-6.1-6.2v-47.4c0-3.4 2.7-6.2 6.1-6.2h47.4c3.5 0 6.2 2.8 6.2 6.2v47.4c0 3.4-2.7 6.2-6.2 6.2z"/>
				</g>
				<g id="&lt;Group&gt;">
					<path id="&lt;Path&gt;" class="s2" d="m518.9 229.3h-47.4c-3.4 0-6.2-2.8-6.2-6.2v-47.4c0-3.4 2.8-6.2 6.2-6.2h47.4c3.5 0 6.2 2.8 6.2 6.2v47.4c0 3.4-2.7 6.2-6.2 6.2z"/>
				</g>
				<g id="&lt;Group&gt;">
					<path id="&lt;Path&gt;" class="s2" d="m580.6 290.4h-47.5c-3.4 0-6.1-2.8-6.1-6.2v-47.4c0-3.4 2.7-6.2 6.1-6.2h47.5c3.4 0 6.1 2.8 6.1 6.2v47.4c0 3.4-2.7 6.2-6.1 6.2z"/>
				</g>
				<g id="&lt;Group&gt;">
					<path id="&lt;Path&gt;" class="s2" d="m580.6 229.3h-47.5c-3.4 0-6.1-2.8-6.1-6.2v-47.4c0-3.4 2.7-6.2 6.1-6.2h47.5c3.4 0 6.1 2.8 6.1 6.2v47.4c0 3.4-2.7 6.2-6.1 6.2z"/>
				</g>
				<path id="&lt;Path&gt;" class="s0" d="m589.5 260.5h-189.8v-47.4h189.8z"/>
			</g>
			<g id="&lt;Group&gt;">
				<g id="&lt;Group&gt;">
					<path id="&lt;Path&gt;" class="s2" d="m652.6 290.4h-47.4c-3.4 0-6.2-2.8-6.2-6.2v-47.4c0-3.4 2.8-6.2 6.2-6.2h47.4c3.4 0 6.2 2.8 6.2 6.2v47.4c0 3.4-2.8 6.2-6.2 6.2z"/>
				</g>
				<g id="&lt;Group&gt;">
					<path id="&lt;Path&gt;" class="s2" d="m714.3 290.4h-47.4c-3.4 0-6.2-2.8-6.2-6.2v-47.4c0-3.4 2.8-6.2 6.2-6.2h47.4c3.4 0 6.2 2.8 6.2 6.2v47.4c0 3.4-2.8 6.2-6.2 6.2z"/>
				</g>
				<g id="&lt;Group&gt;">
					<path id="&lt;Path&gt;" class="s2" d="m652.6 229.3h-47.4c-3.4 0-6.2-2.8-6.2-6.2v-47.4c0-3.4 2.8-6.2 6.2-6.2h47.4c3.4 0 6.2 2.8 6.2 6.2v47.4c0 3.4-2.8 6.2-6.2 6.2z"/>
				</g>
				<g id="&lt;Group&gt;">
					<path id="&lt;Path&gt;" class="s2" d="m714.3 229.3h-47.4c-3.4 0-6.2-2.8-6.2-6.2v-47.4c0-3.4 2.8-6.2 6.2-6.2h47.4c3.4 0 6.2 2.8 6.2 6.2v47.4c0 3.4-2.8 6.2-6.2 6.2z"/>
				</g>
				<g id="&lt;Group&gt;">
					<path id="&lt;Path&gt;" class="s2" d="m775.9 290.4h-47.4c-3.4 0-6.2-2.8-6.2-6.2v-47.4c0-3.4 2.8-6.2 6.2-6.2h47.4c3.4 0 6.2 2.8 6.2 6.2v47.4c0 3.4-2.8 6.2-6.2 6.2z"/>
				</g>
				<g id="&lt;Group&gt;">
					<path id="&lt;Path&gt;" class="s2" d="m775.9 229.3h-47.4c-3.4 0-6.2-2.8-6.2-6.2v-47.4c0-3.4 2.8-6.2 6.2-6.2h47.4c3.4 0 6.2 2.8 6.2 6.2v47.4c0 3.4-2.8 6.2-6.2 6.2z"/>
				</g>
				<path id="&lt;Path&gt;" class="s3" d="m784.8 260.5h-189.8v-47.4h189.8z"/>
			</g>
			<g id="&lt;Group&gt;">
				<path id="&lt;Path&gt;" class="s3" d="m256 418.1c0 14.8 0 32.3 0 32.3h-51.7c0 0 0-17.5 0-32.3 0-14.8 8.1-23.8 8.1-28.4 0-4.6-6-11.7-6-20.7 0-9 11.8-16.5 11.8-23.2 0-6.7 0-18.9 0-18.9h23.9c0 0 0 12.2 0 18.9 0 6.7 11.8 14.2 11.8 23.2 0 9-6 16.1-6 20.7 0 4.6 8.1 13.6 8.1 28.4z"/>
				<path id="&lt;Path&gt;" class="s0" d="m245.8 331h-31.3v-10.6h31.3z"/>
				<path id="&lt;Path&gt;" class="s2" d="m256 438.9h-51.7v-18.8h51.7z"/>
			</g>
			<g id="&lt;Group&gt;">
				<path id="&lt;Path&gt;" class="s3" d="m313.3 418.1c0 14.8 0 32.3 0 32.3h-51.6c0 0 0-17.5 0-32.3 0-14.8 8.1-23.8 8.1-28.4 0-4.6-6-11.7-6-20.7 0-9 11.7-16.5 11.7-23.2 0-6.7 0-18.9 0-18.9h24c0 0 0 12.2 0 18.9 0 6.7 11.8 14.2 11.8 23.2 0 9-6 16.1-6 20.7 0 4.6 8 13.6 8 28.4z"/>
				<path id="&lt;Path&gt;" class="s0" d="m303.2 331h-31.3v-10.6h31.3z"/>
				<path id="&lt;Path&gt;" class="s2" d="m313.3 438.9h-51.6v-18.8h51.6z"/>
			</g>
			<g id="&lt;Group&gt;">
				<path id="&lt;Path&gt;" class="s3" d="m370.7 418.1c0 14.8 0 32.3 0 32.3h-51.6c0 0 0-17.5 0-32.3 0-14.8 8-23.8 8-28.4 0-4.6-5.9-11.7-5.9-20.7 0-9 11.7-16.5 11.7-23.2 0-6.7 0-18.9 0-18.9h24c0 0 0 12.2 0 18.9 0 6.7 11.8 14.2 11.8 23.2 0 9-6 16.1-6 20.7 0 4.6 8 13.6 8 28.4z"/>
				<path id="&lt;Path&gt;" class="s0" d="m360.6 331h-31.4v-10.6h31.4z"/>
				<path id="&lt;Path&gt;" class="s2" d="m370.7 438.9h-51.6v-18.8h51.6z"/>
			</g>
			<g id="&lt;Group&gt;">
				<path id="&lt;Path&gt;" class="s3" d="m428.1 418.1c0 14.8 0 32.3 0 32.3h-51.6c0 0 0-17.5 0-32.3 0-14.8 8-23.8 8-28.4 0-4.6-5.9-11.7-5.9-20.7 0-9 11.7-16.5 11.7-23.2 0-6.7 0-18.9 0-18.9h24c0 0 0 12.2 0 18.9 0 6.7 11.7 14.2 11.7 23.2 0 9-5.9 16.1-5.9 20.7 0 4.6 8 13.6 8 28.4z"/>
				<path id="&lt;Path&gt;" class="s0" d="m418 331h-31.4v-10.6h31.4z"/>
				<path id="&lt;Path&gt;" class="s2" d="m428.1 438.9h-51.6v-18.8h51.6z"/>
			</g>
			<g id="&lt;Group&gt;">
				<path id="&lt;Path&gt;" class="s3" d="m485.5 418.1c0 14.8 0 32.3 0 32.3h-51.6c0 0 0-17.5 0-32.3 0-14.8 8-23.8 8-28.4 0-4.6-6-11.7-6-20.7 0-9 11.8-16.5 11.8-23.2 0-6.7 0-18.9 0-18.9h24c0 0 0 12.2 0 18.9 0 6.7 11.7 14.2 11.7 23.2 0 9-6 16.1-6 20.7 0 4.6 8.1 13.6 8.1 28.4z"/>
				<path id="&lt;Path&gt;" class="s0" d="m475.4 331h-31.4v-10.6h31.4z"/>
				<path id="&lt;Path&gt;" class="s2" d="m485.5 438.9h-51.6v-18.8h51.6z"/>
			</g>
			<g id="&lt;Group&gt;">
				<path id="&lt;Path&gt;" class="s2" d="m572.7 355v82.4c0 5.8-4.7 10.4-10.4 10.4h-47.4c-5.7 0-10.4-4.6-10.4-10.4v-82.4c0-5.7 4.7-10.4 10.4-10.4h0.3v-4.9h46.8v4.9h0.3c5.7 0 10.4 4.7 10.4 10.4z"/>
				<path id="&lt;Path&gt;" class="s4" d="m560 443.6h-42.8c-4.6 0-8.4-3.7-8.4-8.3v-66.6c0-4.6 3.8-8.3 8.4-8.3h42.8c4.6 0 8.4 3.7 8.4 8.3v66.6c0 4.6-3.8 8.3-8.4 8.3z"/>
				<path id="&lt;Path&gt;" class="s3" d="m568.6 339.4h-60.3v-9.9h60.3z"/>
				<path id="&lt;Path&gt;" class="s0" d="m556.3 429.5h-35.4v-35.7h35.4z"/>
			</g>
			<g id="&lt;Group&gt;">
				<path id="&lt;Path&gt;" class="s2" d="m237.3 557.7v46.8c0 3.3-2.6 6-5.9 6h-27c-3.2 0-5.9-2.7-5.9-6v-46.8c0-3.3 2.7-5.9 5.9-5.9h0.2v-2.9h26.6v2.9h0.2c3.3 0 5.9 2.6 5.9 5.9z"/>
				<path id="&lt;Path&gt;" class="s0" d="m231.5 608.1h-27.2c-1.8 0-3.3-1.5-3.3-3.4v-40.7c0-1.8 1.5-3.3 3.3-3.3h27.2c1.8 0 3.3 1.5 3.3 3.3v40.7c0 1.9-1.5 3.4-3.3 3.4z"/>
				<path id="&lt;Path&gt;" class="s4" d="m235 548.8h-34.3v-5.7h34.3z"/>
			</g>
			<g id="&lt;Group&gt;">
				<path id="&lt;Path&gt;" class="s2" d="m237.1 490.4v46.9c0 3.3-2.6 5.9-5.9 5.9h-26.9c-3.3 0-6-2.6-6-5.9v-46.9c0-3.3 2.7-5.9 6-5.9h0.2v-2.8h26.5v2.8h0.2c3.3 0 5.9 2.6 5.9 5.9z"/>
				<path id="&lt;Path&gt;" class="s0" d="m231.3 540.8h-27.1c-1.9 0-3.4-1.5-3.4-3.3v-40.7c0-1.9 1.5-3.4 3.4-3.4h27.1c1.9 0 3.4 1.5 3.4 3.4v40.7c0 1.8-1.5 3.3-3.4 3.3z"/>
				<path id="&lt;Path&gt;" class="s4" d="m234.8 481.5h-34.3v-5.6h34.3z"/>
			</g>
			<g id="&lt;Group&gt;">
				<path id="&lt;Path&gt;" class="s2" d="m278.4 557.7v46.8c0 3.3-2.7 6-6 6h-26.9c-3.3 0-5.9-2.7-5.9-6v-46.8c0-3.3 2.6-5.9 5.9-5.9h0.2v-2.9h26.5v2.9h0.2c3.3 0 6 2.6 6 5.9z"/>
				<path id="&lt;Path&gt;" class="s0" d="m272.5 608.1h-27.1c-1.9 0-3.4-1.5-3.4-3.4v-40.7c0-1.8 1.5-3.3 3.4-3.3h27.1c1.9 0 3.4 1.5 3.4 3.3v40.7c0 1.9-1.5 3.4-3.4 3.4z"/>
				<path id="&lt;Path&gt;" class="s4" d="m276 548.8h-34.3v-5.7h34.3z"/>
			</g>
			<g id="&lt;Group&gt;">
				<path id="&lt;Path&gt;" class="s2" d="m278.2 490.4v46.9c0 3.3-2.7 5.9-5.9 5.9h-27c-3.3 0-5.9-2.6-5.9-5.9v-46.9c0-3.3 2.6-5.9 5.9-5.9h0.2v-2.8h26.6v2.8h0.2c3.2 0 5.9 2.6 5.9 5.9z"/>
				<path id="&lt;Path&gt;" class="s0" d="m272.4 540.8h-27.2c-1.8 0-3.3-1.5-3.3-3.3v-40.7c0-1.9 1.5-3.4 3.3-3.4h27.2c1.8 0 3.3 1.5 3.3 3.4v40.7c0 1.8-1.5 3.3-3.3 3.3z"/>
				<path id="&lt;Path&gt;" class="s4" d="m275.8 481.5h-34.2v-5.6h34.2z"/>
			</g>
			<g id="&lt;Group&gt;">
				<path id="&lt;Path&gt;" class="s2" d="m319.4 557.7v46.8c0 3.3-2.7 6-5.9 6h-27c-3.2 0-5.9-2.7-5.9-6v-46.8c0-3.3 2.7-5.9 5.9-5.9h0.2v-2.9h26.6v2.9h0.2c3.2 0 5.9 2.6 5.9 5.9z"/>
				<path id="&lt;Path&gt;" class="s0" d="m313.6 608.1h-27.2c-1.8 0-3.3-1.5-3.3-3.4v-40.7c0-1.8 1.5-3.3 3.3-3.3h27.2c1.8 0 3.3 1.5 3.3 3.3v40.7c0 1.9-1.5 3.4-3.3 3.4z"/>
				<path id="&lt;Path&gt;" class="s4" d="m317.1 548.8h-34.3v-5.7h34.3z"/>
			</g>
			<g id="&lt;Group&gt;">
				<path id="&lt;Path&gt;" class="s2" d="m319.2 490.4v46.9c0 3.3-2.6 5.9-5.9 5.9h-26.9c-3.3 0-6-2.6-6-5.9v-46.9c0-3.3 2.7-5.9 6-5.9h0.1v-2.8h26.6v2.8h0.2c3.3 0 5.9 2.6 5.9 5.9z"/>
				<path id="&lt;Path&gt;" class="s0" d="m313.4 540.8h-27.1c-1.9 0-3.4-1.5-3.4-3.3v-40.7c0-1.9 1.5-3.4 3.4-3.4h27.1c1.8 0 3.3 1.5 3.3 3.4v40.7c0 1.8-1.5 3.3-3.3 3.3z"/>
				<path id="&lt;Path&gt;" class="s4" d="m316.9 481.5h-34.3v-5.6h34.3z"/>
			</g>
			<g id="&lt;Group&gt;">
				<path id="&lt;Path&gt;" class="s2" d="m360.4 557.7v46.8c0 3.3-2.6 6-5.9 6h-26.9c-3.3 0-6-2.7-6-6v-46.8c0-3.3 2.7-5.9 6-5.9h0.1v-2.9h26.6v2.9h0.2c3.3 0 5.9 2.6 5.9 5.9z"/>
				<path id="&lt;Path&gt;" class="s0" d="m354.6 608.1h-27.1c-1.9 0-3.4-1.5-3.4-3.4v-40.7c0-1.8 1.5-3.3 3.4-3.3h27.1c1.9 0 3.4 1.5 3.4 3.3v40.7c0 1.9-1.5 3.4-3.4 3.4z"/>
				<path id="&lt;Path&gt;" class="s4" d="m358.1 548.8h-34.3v-5.7h34.3z"/>
			</g>
			<g id="&lt;Group&gt;">
				<path id="&lt;Path&gt;" class="s2" d="m360.3 490.4v46.9c0 3.3-2.7 5.9-6 5.9h-26.9c-3.3 0-5.9-2.6-5.9-5.9v-46.9c0-3.3 2.6-5.9 5.9-5.9h0.2v-2.8h26.5v2.8h0.2c3.3 0 6 2.6 6 5.9z"/>
				<path id="&lt;Path&gt;" class="s0" d="m354.4 540.8h-27.1c-1.9 0-3.4-1.5-3.4-3.3v-40.7c0-1.9 1.5-3.4 3.4-3.4h27.1c1.9 0 3.4 1.5 3.4 3.4v40.7c0 1.8-1.5 3.3-3.4 3.3z"/>
				<path id="&lt;Path&gt;" class="s4" d="m357.9 481.5h-34.3v-5.6h34.3z"/>
			</g>
			<g id="&lt;Group&gt;">
				<path id="&lt;Path&gt;" class="s2" d="m401.5 557.7v46.8c0 3.3-2.7 6-6 6h-26.9c-3.3 0-5.9-2.7-5.9-6v-46.8c0-3.3 2.6-5.9 5.9-5.9h0.2v-2.9h26.6v2.9h0.1c3.3 0 6 2.6 6 5.9z"/>
				<path id="&lt;Path&gt;" class="s0" d="m395.6 608.1h-27.1c-1.9 0-3.4-1.5-3.4-3.4v-40.7c0-1.8 1.5-3.3 3.4-3.3h27.1c1.9 0 3.4 1.5 3.4 3.3v40.7c0 1.9-1.5 3.4-3.4 3.4z"/>
				<path id="&lt;Path&gt;" class="s4" d="m399.1 548.8h-34.2v-5.7h34.2z"/>
			</g>
			<g id="&lt;Group&gt;">
				<path id="&lt;Path&gt;" class="s2" d="m401.3 490.4v46.9c0 3.3-2.7 5.9-5.9 5.9h-27c-3.2 0-5.9-2.6-5.9-5.9v-46.9c0-3.3 2.7-5.9 5.9-5.9h0.2v-2.8h26.6v2.8h0.2c3.2 0 5.9 2.6 5.9 5.9z"/>
				<path id="&lt;Path&gt;" class="s0" d="m395.5 540.8h-27.2c-1.8 0-3.3-1.5-3.3-3.3v-40.7c0-1.9 1.5-3.4 3.3-3.4h27.2c1.8 0 3.3 1.5 3.3 3.4v40.7c0 1.8-1.5 3.3-3.3 3.3z"/>
				<path id="&lt;Path&gt;" class="s4" d="m399 481.5h-34.3v-5.6h34.3z"/>
			</g>
			<g id="&lt;Group&gt;">
				<path id="&lt;Path&gt;" class="s2" d="m442.5 557.7v46.8c0 3.3-2.6 6-5.9 6h-27c-3.2 0-5.9-2.7-5.9-6v-46.8c0-3.3 2.7-5.9 5.9-5.9h0.2v-2.9h26.6v2.9h0.2c3.3 0 5.9 2.6 5.9 5.9z"/>
				<path id="&lt;Path&gt;" class="s0" d="m436.7 608.1h-27.2c-1.8 0-3.3-1.5-3.3-3.4v-40.7c0-1.8 1.5-3.3 3.3-3.3h27.2c1.8 0 3.3 1.5 3.3 3.3v40.7c0 1.9-1.5 3.4-3.3 3.4z"/>
				<path id="&lt;Path&gt;" class="s4" d="m440.2 548.8h-34.3v-5.7h34.3z"/>
			</g>
			<g id="&lt;Group&gt;">
				<path id="&lt;Path&gt;" class="s2" d="m442.3 490.4v46.9c0 3.3-2.6 5.9-5.9 5.9h-26.9c-3.3 0-6-2.6-6-5.9v-46.9c0-3.3 2.7-5.9 6-5.9h0.1v-2.8h26.6v2.8h0.2c3.3 0 5.9 2.6 5.9 5.9z"/>
				<path id="&lt;Path&gt;" class="s0" d="m436.5 540.8h-27.1c-1.9 0-3.4-1.5-3.4-3.3v-40.7c0-1.9 1.5-3.4 3.4-3.4h27.1c1.9 0 3.4 1.5 3.4 3.4v40.7c0 1.8-1.5 3.3-3.4 3.3z"/>
				<path id="&lt;Path&gt;" class="s4" d="m440 481.5h-34.3v-5.6h34.3z"/>
			</g>
			<g id="&lt;Group&gt;">
				<path id="&lt;Path&gt;" class="s2" d="m483.5 557.7v46.8c0 3.3-2.6 6-5.9 6h-26.9c-3.3 0-5.9-2.7-5.9-6v-46.8c0-3.3 2.6-5.9 5.9-5.9h0.2v-2.9h26.5v2.9h0.2c3.3 0 5.9 2.6 5.9 5.9z"/>
				<path id="&lt;Path&gt;" class="s0" d="m477.7 608.1h-27.1c-1.9 0-3.4-1.5-3.4-3.4v-40.7c0-1.8 1.5-3.3 3.4-3.3h27.1c1.9 0 3.4 1.5 3.4 3.3v40.7c0 1.9-1.5 3.4-3.4 3.4z"/>
				<path id="&lt;Path&gt;" class="s4" d="m481.2 548.8h-34.3v-5.7h34.3z"/>
			</g>
			<g id="&lt;Group&gt;">
				<path id="&lt;Path&gt;" class="s2" d="m483.4 490.4v46.9c0 3.3-2.7 5.9-6 5.9h-26.9c-3.3 0-5.9-2.6-5.9-5.9v-46.9c0-3.3 2.6-5.9 5.9-5.9h0.2v-2.8h26.6v2.8h0.1c3.3 0 6 2.6 6 5.9z"/>
				<path id="&lt;Path&gt;" class="s0" d="m477.5 540.8h-27.1c-1.8 0-3.4-1.5-3.4-3.3v-40.7c0-1.9 1.6-3.4 3.4-3.4h27.1c1.9 0 3.4 1.5 3.4 3.4v40.7c0 1.8-1.5 3.3-3.4 3.3z"/>
				<path id="&lt;Path&gt;" class="s4" d="m481 481.5h-34.2v-5.6h34.2z"/>
			</g>
			<g id="&lt;Group&gt;">
				<path id="&lt;Path&gt;" class="s2" d="m648.2 355v82.4c0 5.8-4.7 10.4-10.4 10.4h-47.4c-5.7 0-10.4-4.6-10.4-10.4v-82.4c0-5.7 4.7-10.4 10.4-10.4h0.3v-4.9h46.8v4.9h0.3c5.7 0 10.4 4.7 10.4 10.4z"/>
				<path id="&lt;Path&gt;" class="s4" d="m635.5 443.6h-42.8c-4.6 0-8.4-3.7-8.4-8.3v-66.6c0-4.6 3.8-8.3 8.4-8.3h42.8c4.6 0 8.4 3.7 8.4 8.3v66.6c0 4.6-3.8 8.3-8.4 8.3z"/>
				<path id="&lt;Path&gt;" class="s3" d="m644.1 339.4h-60.3v-9.9h60.3z"/>
				<path id="&lt;Path&gt;" class="s0" d="m631.8 429.5h-35.4v-35.7h35.4z"/>
			</g>
			<g id="&lt;Group&gt;">
				<path id="&lt;Path&gt;" class="s2" d="m723.7 355v82.4c0 5.8-4.7 10.4-10.4 10.4h-47.4c-5.7 0-10.4-4.6-10.4-10.4v-82.4c0-5.7 4.7-10.4 10.4-10.4h0.3v-4.9h46.8v4.9h0.3c5.7 0 10.4 4.7 10.4 10.4z"/>
				<path id="&lt;Path&gt;" class="s4" d="m711 443.6h-42.8c-4.6 0-8.4-3.7-8.4-8.3v-66.6c0-4.6 3.8-8.3 8.4-8.3h42.8c4.6 0 8.4 3.7 8.4 8.3v66.6c0 4.6-3.8 8.3-8.4 8.3z"/>
				<path id="&lt;Path&gt;" class="s3" d="m719.6 339.4h-60.3v-9.9h60.3z"/>
				<path id="&lt;Path&gt;" class="s0" d="m707.3 429.5h-35.4v-35.7h35.4z"/>
			</g>
			<g id="&lt;Group&gt;">
				<path id="&lt;Path&gt;" class="s2" d="m799.2 355v82.4c0 5.8-4.7 10.4-10.4 10.4h-47.4c-5.7 0-10.4-4.6-10.4-10.4v-82.4c0-5.7 4.7-10.4 10.4-10.4h0.3v-4.9h46.8v4.9h0.3c5.7 0 10.4 4.7 10.4 10.4z"/>
				<path id="&lt;Path&gt;" class="s4" d="m786.5 443.6h-42.8c-4.6 0-8.4-3.7-8.4-8.3v-66.6c0-4.6 3.8-8.3 8.4-8.3h42.8c4.6 0 8.4 3.7 8.4 8.3v66.6c0 4.6-3.8 8.3-8.4 8.3z"/>
				<path id="&lt;Path&gt;" class="s3" d="m795.1 339.4h-60.3v-9.9h60.3z"/>
				<path id="&lt;Path&gt;" class="s0" d="m782.8 429.5h-35.4v-35.7h35.4z"/>
			</g>
			<g id="&lt;Group&gt;">
				<path id="&lt;Path&gt;" class="s3" d="m584.3 610.3h-93.5v-131.7h93.5z"/>
				<path id="&lt;Path&gt;" class="s4" d="m571 523h-66.8v-5.8h66.8z"/>
				<path id="&lt;Path&gt;" class="s4" d="m564.2 534h-53.2v-5.8h53.2z"/>
				<path id="&lt;Path&gt;" class="s0" d="m564.2 502.9h-53.2v-5.8h53.2z"/>
				<path id="&lt;Path&gt;" class="s2" d="m573.9 570.8c0 11.2-16.2 20.2-36.3 20.2-20.1 0-36.3-9-36.3-20.2 0-11.2 16.2-20.3 36.3-20.3 20.1 0 36.3 9.1 36.3 20.3z"/>
			</g>
			<g id="&lt;Group&gt;">
				<path id="&lt;Path&gt;" class="s3" d="m687.6 610.3h-93.5v-131.7h93.5z"/>
				<path id="&lt;Path&gt;" class="s4" d="m674.3 523h-66.8v-5.8h66.8z"/>
				<path id="&lt;Path&gt;" class="s4" d="m667.5 534h-53.2v-5.8h53.2z"/>
				<path id="&lt;Path&gt;" class="s0" d="m667.5 502.9h-53.2v-5.8h53.2z"/>
				<path id="&lt;Path&gt;" class="s2" d="m677.2 570.8c0 11.2-16.2 20.2-36.3 20.2-20.1 0-36.3-9-36.3-20.2 0-11.2 16.2-20.3 36.3-20.3 20.1 0 36.3 9.1 36.3 20.3z"/>
			</g>
			<g id="&lt;Group&gt;">
				<path id="&lt;Path&gt;" class="s3" d="m790.9 610.3h-93.5v-131.7h93.5z"/>
				<path id="&lt;Path&gt;" class="s4" d="m777.6 523h-66.8v-5.8h66.8z"/>
				<path id="&lt;Path&gt;" class="s4" d="m770.8 534h-53.2v-5.8h53.2z"/>
				<path id="&lt;Path&gt;" class="s0" d="m770.8 502.9h-53.2v-5.8h53.2z"/>
				<path id="&lt;Path&gt;" class="s2" d="m780.5 570.8c0 11.2-16.2 20.2-36.3 20.2-20.1 0-36.3-9-36.3-20.2 0-11.2 16.2-20.3 36.3-20.3 20.1 0 36.3 9.1 36.3 20.3z"/>
			</g>
			<g id="&lt;Group&gt;">
				<path id="&lt;Path&gt;" class="s0" d="m329.2 761.3h-120.9v-116.8h120.9z"/>
				<path id="&lt;Path&gt;" class="s2" d="m311.6 749.9h-85.6v-44.2h85.6z"/>
				<path id="&lt;Path&gt;" class="s3" d="m333.8 662.7h-130.1v-18.2h130.1z"/>
			</g>
			<g id="&lt;Group&gt;">
				<path id="&lt;Path&gt;" class="s0" d="m466.5 761.3h-121v-116.8h121z"/>
				<path id="&lt;Path&gt;" class="s2" d="m448.8 749.9h-85.6v-44.2h85.6z"/>
				<path id="&lt;Path&gt;" class="s3" d="m471.1 662.7h-130.2v-18.2h130.2z"/>
			</g>
			<g id="&lt;Group&gt;">
				<path id="&lt;Path&gt;" class="s0" d="m551.9 761.3h-69.7v-89.4h69.7z"/>
				<path id="&lt;Path&gt;" class="s2" d="m542.1 716.2h-51.1v-19.1h51.1z"/>
				<path id="&lt;Path&gt;" class="s2" d="m542.1 754.2h-51.1v-29h51.1z"/>
				<path id="&lt;Path&gt;" class="s3" d="m555.9 685.8h-77.7v-13.9h77.7z"/>
			</g>
			<g id="&lt;Group&gt;">
				<path id="&lt;Path&gt;" class="s0" d="m633.5 761.3h-69.6v-89.4h69.6z"/>
				<path id="&lt;Path&gt;" class="s2" d="m623.7 716.2h-51.1v-19.1h51.1z"/>
				<path id="&lt;Path&gt;" class="s2" d="m623.7 754.2h-51.1v-29h51.1z"/>
				<path id="&lt;Path&gt;" class="s3" d="m637.5 685.8h-77.7v-13.9h77.7z"/>
			</g>
			<g id="&lt;Group&gt;">
				<path id="&lt;Path&gt;" class="s0" d="m715.1 761.3h-69.6v-89.4h69.6z"/>
				<path id="&lt;Path&gt;" class="s2" d="m705.3 716.2h-51.1v-19.1h51.1z"/>
				<path id="&lt;Path&gt;" class="s2" d="m705.3 754.2h-51.1v-29h51.1z"/>
				<path id="&lt;Path&gt;" class="s3" d="m719.2 685.8h-77.8v-13.9h77.8z"/>
			</g>
			<g id="&lt;Group&gt;">
				<path id="&lt;Path&gt;" class="s0" d="m796.7 761.3h-69.6v-89.4h69.6z"/>
				<path id="&lt;Path&gt;" class="s2" d="m787 716.2h-51.2v-19.1h51.2z"/>
				<path id="&lt;Path&gt;" class="s2" d="m787 754.2h-51.2v-29h51.2z"/>
				<path id="&lt;Path&gt;" class="s3" d="m800.8 685.8h-77.8v-13.9h77.8z"/>
			</g>
			<path id="&lt;Path&gt;" class="s1" d="m806.9 798.7h-613.8v-36.4h613.8z"/>
		</g>
	</g>
	<g id="Floor">
		<g id="&lt;Group&gt;">
			<path id="&lt;Path&gt;" class="s5" d="m140 895.7c230.6-1.2 489.4-1.2 720 0-230.6 1.2-489.4 1.2-720 0z"/>
		</g>
	</g>
	<g id="Shopping cart">
		<g id="&lt;Group&gt;">
			<g id="&lt;Group&gt;">
				<path id="&lt;Path&gt;" class="s4" d="m596.8 692.8h-42c-12.7 0-23.5-8.6-26.3-20.9l-74.2-303.3-44.4-64.1 6.6-4.6 45.2 65.4 74.5 304.8c2.1 8.7 9.7 14.7 18.6 14.7h42z"/>
				<path id="&lt;Path&gt;" class="s4" d="m567.4 692.8h-42c-12.6 0-23.5-8.6-26.3-20.9l-74.2-303.5-37-64.2 6.9-4 37.6 65.2 74.5 304.7c2 8.7 9.6 14.7 18.5 14.7h42z"/>
				<path id="&lt;Path&gt;" class="s4" d="m492.6 689.3l-25.8-234.8 8-0.9 25.7 234.8z"/>
				<path id="&lt;Path&gt;" class="s4" d="m841.1 492.2q-0.2 0-0.4 0l-361.8-35.4-218.8-1.2c-2.3 0-4.1-1.9-4.1-4.1 0-2.3 1.9-4.2 4.1-4.2q0 0 0.1 0l218.9 1.2q0.2 0 0.4 0l362 35.5c2.3 0.2 4 2.2 3.7 4.5-0.2 2.1-2 3.7-4.1 3.7z"/>
				<g id="&lt;Group&gt;">
					<path id="&lt;Path&gt;" class="s4" d="m844 484.2q-0.2 0-0.4 0l-364.7-35.7-221.7-1.2c-2.3 0-4.1-1.9-4.1-4.2 0-2.3 1.8-4.1 4.2-4.1l221.8 1.2q0.2 0 0.4 0l364.9 35.7c2.3 0.2 3.9 2.3 3.7 4.5-0.2 2.2-2 3.8-4.1 3.8z"/>
					<path id="&lt;Path&gt;" class="s6" d="m848.1 480.4c-0.2 2.2-2 3.8-4.1 3.8q-0.2 0-0.4 0l-364.7-35.7-221.7-1.2c-2.3 0-4.1-1.9-4.1-4.2 0-0.5 0.1-1 0.3-1.5 0.6 1.5 2.1 2.6 3.8 2.6l221.7 1.2 364.7 35.7q0.2 0 0.4 0c1.7 0 3.2-1.1 3.8-2.6q0.4 0.9 0.3 1.9z"/>
					<g id="&lt;Group&gt;">
						<path id="&lt;Path&gt;" class="s2" d="m735.3 467.3c23.2 0.9 46.4 3.1 69.3 6.7-23.2-0.9-46.4-3.1-69.3-6.7z"/>
						<path id="&lt;Path&gt;" class="s2" d="m309.4 442.2c42.4-0.4 127.5-0.8 169.8-0.9 78.3 7.4 171.4 16.8 249.6 25.3-78.3-6.8-171.6-15.6-249.7-23.5-41.8-0.1-127.6-0.6-169.7-0.9z"/>
					</g>
				</g>
				<g id="&lt;Group&gt;">
					<g id="&lt;Group&gt;">
						<path id="&lt;Path&gt;" class="s4" d="m499.4 692.8h-5.9c-13.9 0-25.8-9-28.2-21.4l-36.4-221.6 7.9-1.3 36.4 221.5c1.7 8.6 10.2 14.8 20.3 14.8h5.9z"/>
					</g>
					<g id="&lt;Group&gt;">
						<path id="&lt;Path&gt;" class="s4" d="m460.5 692.8h-5.9c-13.9 0-25.7-9-28.2-21.4l-36.4-221.6 7.9-1.3 36.4 221.5c1.7 8.6 10.2 14.8 20.3 14.8h5.9z"/>
					</g>
					<g id="&lt;Group&gt;">
						<path id="&lt;Path&gt;" class="s4" d="m421.6 692.8h-5.9c-13.9 0-25.7-9-28.1-21.4l-38.5-221.5 7.9-1.4 38.4 221.5c1.7 8.6 10.2 14.8 20.3 14.8h5.9z"/>
					</g>
					<g id="&lt;Group&gt;">
						<path id="&lt;Path&gt;" class="s4" d="m382.7 692.8h-5.8c-14 0-25.8-9-28.2-21.4l-38.5-221.5 7.9-1.4 38.4 221.5c1.7 8.6 10.3 14.8 20.4 14.8h5.8z"/>
					</g>
					<g id="&lt;Group&gt;">
						<path id="&lt;Path&gt;" class="s4" d="m341.8 692.8h-5.8c-14 0-25.8-9-28.2-21.4l-40.5-221.5 7.9-1.4 40.4 221.4c1.7 8.7 10.3 14.9 20.4 14.9h5.8z"/>
					</g>
					<g id="&lt;Group&gt;">
						<path id="&lt;Path&gt;" class="s4" d="m355.9 535.8h-8v-133.2h8z"/>
						<path id="&lt;Path&gt;" class="s4" d="m387.1 535.8h-8v-133.2h8z"/>
						<path id="&lt;Path&gt;" class="s4" d="m418.4 535.8h-8v-133.2h8z"/>
						<path id="&lt;Path&gt;" class="s4" d="m479.1 539.8h-192v-8h192z"/>
						<path id="&lt;Path&gt;" class="s4" d="m441 513.7h-116.5v-8h116.5z"/>
						<path id="&lt;Path&gt;" class="s4" d="m488.2 598.5h-188.3v-8h188.3z"/>
						<path id="&lt;Path&gt;" class="s4" d="m445 535h-8v-115.1c0-7.3-6-13.3-13.4-13.3h-81.8c-7.3 0-13.3 6-13.3 13.3v115.1h-8v-115.1c0-11.7 9.6-21.3 21.3-21.3h81.8c11.8 0 21.4 9.6 21.4 21.3z"/>
						<g id="&lt;Group&gt;">
							<path id="&lt;Path&gt;" class="s7" d="m457.2 598.8h-126.9l-12.2-68.5h31.6l1.7 9.3h66l-1.6-9.3h29.2z"/>
							<g id="&lt;Group&gt;" style="opacity: .1">
								<path id="&lt;Path&gt;" class="s8" d="m324.4 530.3l12.2 68.5h-6.3l-12.2-68.5z"/>
								<path id="&lt;Path&gt;" class="s8" d="m423.7 539.6h-6.3l-1.6-9.3h6.3z"/>
							</g>
							<g id="&lt;Group&gt;" style="opacity: .1">
								<path id="&lt;Path&gt;" class="s8" d="m412 539.6l-59.3 59.2h-16.1l-2.2-12.4 46.8-46.8z"/>
								<path id="&lt;Path&gt;" class="s8" d="m453.6 578.4l-20.5 20.4h-30.8l46.6-46.5z"/>
								<path id="&lt;Path&gt;" class="s8" d="m351.3 539.4l-21.5 21.5-2-11.3 19.2-19.3h2.7z"/>
								<path id="&lt;Path&gt;" class="s8" d="m446.4 538.1l-60.8 60.7h-3.6l63.8-63.8z"/>
								<path id="&lt;Path&gt;" class="s8" d="m454.6 584.4l-14.4 14.4h-3.7l17.6-17.5z"/>
								<path id="&lt;Path&gt;" class="s8" d="m361.9 539.6l-30.4 30.5-0.6-3.2 27.3-27.3z"/>
							</g>
						</g>
					</g>
				</g>
				<g id="&lt;Group&gt;">
					<g id="&lt;Group&gt;">
						<path id="&lt;Path&gt;" class="s4" d="m501.7 692.8h-5v-8h5c8.2 0 15.1-5.7 16.6-13.8l7.8-211.3 8 0.3-7.8 211.9v0.3c-2.1 11.9-12.5 20.6-24.6 20.6z"/>
					</g>
					<g id="&lt;Group&gt;">
						<path id="&lt;Path&gt;" class="s4" d="m546.6 692.8h-5v-8h5c8.2 0 15.2-5.8 16.7-13.9l19.2-210.6 8 0.7-19.3 211.2c-2.1 11.9-12.4 20.6-24.6 20.6z"/>
					</g>
					<g id="&lt;Group&gt;">
						<path id="&lt;Path&gt;" class="s4" d="m591.5 692.8h-4.9v-8h4.9c8.3 0 15.3-5.8 16.7-13.9l24.9-204.7 8 1-25 205c-2.1 11.9-12.4 20.6-24.6 20.6z"/>
					</g>
					<g id="&lt;Group&gt;">
						<path id="&lt;Path&gt;" class="s4" d="m636.5 692.8h-5v-8h5c8.2 0 15.3-5.9 16.7-14l31.4-199 7.9 1.3-31.4 199c-2.1 12-12.5 20.7-24.6 20.7z"/>
					</g>
					<g id="&lt;Group&gt;">
						<path id="&lt;Path&gt;" class="s4" d="m681.4 692.8h-5v-8h5c8.3 0 15.3-5.9 16.7-14l33.5-194.1 7.9 1.3-33.5 194.1c-2.1 12-12.4 20.7-24.6 20.7z"/>
					</g>
					<g id="&lt;Group&gt;">
						<path id="&lt;Path&gt;" class="s4" d="m724.3 692.8h-4.9v-8h4.9c8.3 0 15.3-5.9 16.7-14l39.8-188.1 7.9 1.6-39.8 188c-2.1 11.8-12.4 20.5-24.6 20.5z"/>
					</g>
					<g id="&lt;Group&gt;">
						<path id="&lt;Path&gt;" class="s4" d="m755.6 692.8h-5v-8h5c8.3 0 15.3-5.9 16.7-14l39.8-188.1 7.8 1.6-39.7 188c-2.1 11.8-12.4 20.5-24.6 20.5z"/>
					</g>
				</g>
				<path id="&lt;Path&gt;" class="s4" d="m816 597h-124.7l-437.4-26.6 0.4-8 437.4 26.6h124.3z"/>
			</g>
			<g id="&lt;Group&gt;">
				<g id="&lt;Group&gt;">
					<g id="&lt;Group&gt;">
						<path id="&lt;Path&gt;" class="s7" d="m443.6 323.1l-41.2 23.8h-11.5l-4.3-34.5c-5.6-9.6-3.6-21.6 4.1-29v-6.6h11.5q0.4 0 0.9 0c8.3 0 16.3 4.2 20.7 11.9z"/>
					</g>
					<g id="&lt;Group&gt;" style="opacity: .1">
						<path id="&lt;Path&gt;" class="s8" d="m443.6 323.1l-41.2 23.8h-11.5l-4.3-34.5c-5.6-9.6-3.6-21.6 4.1-29v-6.6h11.5q0.4 0 0.9 0c8.3 0 16.3 4.2 20.7 11.9z"/>
					</g>
				</g>
				<g id="&lt;Group&gt;">
					<path id="&lt;Path&gt;" class="s7" d="m432.1 323.1l-41.2 23.8-19.9-34.5c-6.5-11.4-2.6-25.9 8.8-32.5 11.4-6.5 25.9-2.6 32.5 8.8z"/>
				</g>
				<path id="&lt;Path&gt;" class="s6" d="m392.6 297.9c0 2.3-1.8 4.2-4.2 4.2-2.3 0-4.2-1.9-4.2-4.2 0-2.4 1.9-4.3 4.2-4.3 2.4 0 4.2 1.9 4.2 4.3z"/>
				<path id="&lt;Path&gt;" class="s2" d="m388.7 279.5c10.4-3.1 20.1 5.4 24.4 14.2 3.5 6.2 7.2 13.3 10.5 19.8 1 2.2 2.1 4.4 3.1 6.7-1.4-2-2.7-4.2-4-6.3l-3.9-6.4c-7.2-11.5-13.3-29.9-30.1-28z"/>
			</g>
			<g id="&lt;Group&gt;">
				<g id="&lt;Group&gt;">
					<path id="&lt;Path&gt;" class="s4" d="m479.7 870.5c-9.1 0-16.7-7.1-17.2-16.2l-3.2-52h40.8l-3.2 52c-0.5 9.1-8.1 16.2-17.2 16.2z"/>
					<path id="&lt;Path&gt;" class="s9" d="m479.7 870.5c-9.1 0-16.7-7.1-17.2-16.2l-3.2-52h40.8l-3.2 52c-0.5 9.1-8.1 16.2-17.2 16.2z"/>
					<g id="&lt;Group&gt;">
						<path id="&lt;Path&gt;" class="s3" d="m472.5 860.7c-7.9-5.9-2.4-18.9 7.2-18.2 2.9 0.2 5.6 1.6 7.2 3.8-9.9-7.3-21.7 4.5-14.4 14.4z"/>
						<path id="&lt;Path&gt;" class="s6" d="m486.9 846.3c7.9 5.9 2.4 18.9-7.2 18.2-2.9-0.1-5.6-1.6-7.2-3.8 9.9 7.3 21.7-4.5 14.4-14.4z"/>
					</g>
				</g>
				<g id="&lt;Group&gt;">
					<path id="&lt;Path&gt;" class="s4" d="m740.6 870.5c-9.1 0-16.7-7.1-17.1-16.2l-3.3-52h40.8l-3.2 52c-0.5 9.1-8.1 16.2-17.2 16.2z"/>
					<path id="&lt;Path&gt;" class="s9" d="m740.6 870.5c-9.1 0-16.7-7.1-17.1-16.2l-3.3-52h40.8l-3.2 52c-0.5 9.1-8.1 16.2-17.2 16.2z"/>
					<g id="&lt;Group&gt;">
						<path id="&lt;Path&gt;" class="s3" d="m733.4 860.7c-7.9-5.9-2.4-18.9 7.2-18.2 2.9 0.2 5.6 1.6 7.2 3.8-9.9-7.3-21.7 4.5-14.4 14.4z"/>
						<path id="&lt;Path&gt;" class="s6" d="m747.8 846.3c7.9 5.9 2.4 18.9-7.2 18.2-2.9-0.1-5.6-1.6-7.2-3.8 9.9 7.3 21.7-4.5 14.4-14.4z"/>
					</g>
				</g>
				<g id="&lt;Group&gt;">
					<path id="&lt;Path&gt;" class="s4" d="m371.8 870.5c-9.1 0-16.6-7.1-17.1-16.2l-3.3-48h40.9l-3.3 48c-0.5 9.1-8 16.2-17.2 16.2z"/>
					<path id="&lt;Path&gt;" class="s6" d="m371.8 870.5c-9.1 0-16.6-7.1-17.1-16.2l-3.3-48h40.9l-3.3 48c-0.5 9.1-8 16.2-17.2 16.2z"/>
					<g id="&lt;Group&gt;">
						<path id="&lt;Path&gt;" class="s3" d="m364.6 860.7c-7.8-5.9-2.4-18.9 7.2-18.2 2.9 0.2 5.6 1.6 7.2 3.8-9.9-7.3-21.7 4.5-14.4 14.4z"/>
						<path id="&lt;Path&gt;" class="s6" d="m379 846.3c7.9 5.9 2.5 18.9-7.2 18.2-2.8-0.1-5.6-1.6-7.2-3.8 9.9 7.3 21.7-4.5 14.4-14.4z"/>
					</g>
				</g>
				<path id="&lt;Path&gt;" class="s1" d="m344.5 692.8h-42.1c-12.6 0-23.4-8.6-26.3-20.9l-74.2-303.5-36.9-64.2 6.9-4 37.5 65.2 74.5 304.7c2 8.7 9.6 14.7 18.5 14.7h42.1z"/>
				<path id="&lt;Compound Path&gt;" fill-rule="evenodd" class="s1" d="m683.4 692.8h-334.7c-16.6 0-31.2-11.1-35.5-27.1l-79.3-293.5-45.7-67.8 6.6-4.4 46.5 68.8 23.7 87.7 443.3 35.4zm-416.2-228.2l53.7 198.9c3.4 12.5 14.8 21.3 27.8 21.3h327.7l23-185.7z"/>
				<path id="&lt;Compound Path&gt;" fill-rule="evenodd" class="s1" d="m786.9 692.8h-111.5l24.9-201.3h143l-38.7 185.9c-1.2 8.8-8.8 15.4-17.7 15.4zm-102.5-8h102.5c4.9 0 9.1-3.7 9.8-8.6v-0.3l36.8-176.4h-126.1z"/>
				<g id="&lt;Group&gt;">
					<path id="&lt;Path&gt;" class="s1" d="m390.3 692.8h-6.3c-11.4 0-21.3-7.7-24.1-18.8l-53.2-210.5 7.7-1.9 53.2 210.4c1.9 7.6 8.7 12.8 16.4 12.8h6.3z"/>
					<path id="&lt;Path&gt;" class="s1" d="m447.7 692.8h-6.3c-11.5 0-21.4-7.7-24.2-18.8l-53.2-210.5 7.7-1.9 53.2 210.4c1.9 7.6 8.7 12.8 16.5 12.8h6.3z"/>
					<path id="&lt;Path&gt;" class="s1" d="m505 692.8h-6.3c-11.4 0-21.4-7.7-24.2-18.8l-51.2-202.4 7.8-2 51.2 202.4c1.9 7.6 8.6 12.8 16.4 12.8h6.3z"/>
					<path id="&lt;Path&gt;" class="s1" d="m562.3 692.8h-6c-11.6 0-21.6-7.9-24.3-19.2l-45.1-192.5 7.8-1.8 45.1 192.5c1.8 7.7 8.6 13 16.5 13h6z"/>
					<path id="&lt;Path&gt;" class="s1" d="m619.6 692.8h-5.6c-11.7 0-22-8.3-24.4-19.7l-40.2-188.8 7.8-1.6 40.2 188.7c1.7 7.8 8.6 13.4 16.6 13.4h5.6z"/>
					<path id="&lt;Path&gt;" class="s1" d="m677 692.8h-5c-12.2 0-22.5-8.7-24.6-20.6l-31.7-183.3 7.9-1.3 31.7 183.2c1.4 8.1 8.4 14 16.7 14h5z"/>
				</g>
				<g id="&lt;Group&gt;">
					<path id="&lt;Path&gt;" class="s1" d="m684.7 692.8h-4.8v-8h4.8c7.7 0 14.3-5.5 15.7-13.2l30.2-174.5 7.9 1.3-30.2 174.6c-2 11.5-12 19.8-23.6 19.8z"/>
				</g>
				<g id="&lt;Group&gt;">
					<path id="&lt;Path&gt;" class="s1" d="m712 692.8h-4.8v-8h4.8c7.7 0 14.3-5.5 15.7-13.2l32.2-174.6 7.9 1.5-32.2 174.5c-2 11.5-12 19.8-23.6 19.8z"/>
				</g>
				<g id="&lt;Group&gt;">
					<path id="&lt;Path&gt;" class="s1" d="m739.3 692.8h-4.8v-8h4.8c7.7 0 14.4-5.5 15.7-13.2l34.2-174.6 7.8 1.5-34.2 174.6c-1.9 11.4-11.9 19.7-23.5 19.7z"/>
				</g>
				<g id="&lt;Group&gt;">
					<path id="&lt;Path&gt;" class="s1" d="m766.6 692.8h-4.8v-8h4.8c7.7 0 14.4-5.5 15.7-13.2l36.2-174.7 7.8 1.7-36.2 174.5c-1.9 11.4-11.9 19.7-23.5 19.7z"/>
				</g>
				<g id="&lt;Group&gt;">
					<path id="&lt;Path&gt;" class="s4" d="m763.8 806.3h-54.3c-10.3 0-18.4-10.5-18.4-23.9v-15.4c0-4.8 1.1-9.4 3-13.3l29.5-58.2c3.4-6.7 9.1-10.7 15.4-10.7h26.3v8h-26.3c-3.2 0-6.3 2.4-8.3 6.4l-29.4 58.1c-1.4 2.8-2.2 6.2-2.2 9.7v15.4c0 8.6 4.8 15.9 10.4 15.9h54.3z"/>
					<path id="&lt;Path&gt;" class="s1" d="m786 806.3h-460.8c-13.2 0-24-10.7-24-23.9v-15.4c0-5 1.5-9.8 4.4-13.8l40.7-58.1c4.5-6.4 11.8-10.3 19.7-10.3h36.5v8h-36.5c-5.3 0-10.1 2.6-13.1 6.8l-40.8 58.2c-1.9 2.7-2.9 5.9-2.9 9.2v15.4c0 8.8 7.2 15.9 16 15.9h460.8c2.2 0 4 1.8 4 4 0 2.3-1.8 4-4 4z"/>
					<g id="&lt;Group&gt;">
						<path id="&lt;Path&gt;" class="s2" d="m359.9 800.5c44.2-1.4 88.7-1.4 132.9 0-44.2 1.3-88.7 1.3-132.9 0z"/>
						<path id="&lt;Path&gt;" class="s2" d="m349.1 695.6c-11.4 18.5-24 36.3-37.7 53.2 11.4-18.4 24.1-36.3 37.7-53.2z"/>
					</g>
					<path id="&lt;Path&gt;" class="s1" d="m652.8 806.3h-128.7c-13.2 0-24-10.7-24-23.9v-15.4c0-5 1.5-9.7 4.4-13.8l40.7-58.1c4.5-6.4 11.9-10.3 19.7-10.3h36.5v8h-36.5c-5.2 0-10.1 2.6-13.1 6.8l-40.8 58.2c-1.9 2.7-2.9 5.9-2.9 9.2v15.4c0 8.8 7.2 15.9 16 15.9h128.7z"/>
				</g>
				<g id="&lt;Group&gt;">
					<g id="&lt;Group&gt;">
						<path id="&lt;Path&gt;" class="s5" d="m390.2 855c0 22.1-14.6 40-32.6 40-18 0-32.6-17.9-32.6-40 0-22.1 14.6-40 32.6-40 18 0 32.6 17.9 32.6 40z"/>
						<path id="&lt;Path&gt;" class="s5" d="m408.5 855c0 22.1-15.5 40-34.7 40h-17.6v-80h17.6c19.2 0 34.7 17.9 34.7 40z"/>
						<path id="&lt;Path&gt;" class="s10" d="m359.5 817.3c20.4-1.1 30.7 20 31.2 37.7 0.6 13.5-5.6 28.3-18 34.8-4 2.1-8.7 3.2-13.2 2.9v-0.2c9-0.6 16.9-5.9 21.9-12.9 10.1-14 11.7-35.5 0.2-49.3-2.7-3.4-5.9-6.5-9.6-8.7-3.7-2.3-8-3.7-12.5-4.1z"/>
					</g>
					<g id="&lt;Group&gt;">
					</g>
					<g id="&lt;Group&gt;">
						<path id="&lt;Path&gt;" class="s4" d="m357 870.5c-9.1 0-16.6-7.1-17.1-16.2l-3.3-48h40.9l-3.3 48c-0.5 9.1-8 16.2-17.2 16.2z"/>
						<g id="&lt;Group&gt;">
							<path id="&lt;Path&gt;" class="s3" d="m349.8 860.7c-7.8-5.9-2.4-18.9 7.2-18.2 2.9 0.2 5.6 1.6 7.2 3.8-9.8-7.3-21.7 4.5-14.4 14.4z"/>
							<path id="&lt;Path&gt;" class="s6" d="m364.2 846.3c7.9 5.9 2.5 18.9-7.2 18.2-2.8-0.1-5.6-1.6-7.2-3.8 9.9 7.3 21.7-4.5 14.4-14.4z"/>
						</g>
					</g>
				</g>
				<g id="&lt;Group&gt;">
					<path id="&lt;Path&gt;" class="s4" d="m591.6 870.5c-9.1 0-16.6-7.1-17.1-16.2l-3.3-48h40.9l-3.3 48c-0.5 9.1-8 16.2-17.2 16.2z"/>
					<path id="&lt;Path&gt;" class="s6" d="m591.6 870.5c-9.1 0-16.6-7.1-17.1-16.2l-3.3-48h40.9l-3.3 48c-0.5 9.1-8 16.2-17.2 16.2z"/>
					<g id="&lt;Group&gt;">
						<path id="&lt;Path&gt;" class="s3" d="m584.4 860.7c-7.8-5.9-2.4-18.9 7.2-18.2 2.9 0.2 5.7 1.6 7.3 3.8-9.9-7.3-21.8 4.5-14.5 14.4z"/>
						<path id="&lt;Path&gt;" class="s6" d="m598.9 846.3c7.8 5.9 2.4 18.9-7.3 18.2-2.8-0.1-5.6-1.6-7.2-3.8 9.9 7.3 21.8-4.5 14.5-14.4z"/>
					</g>
				</g>
				<g id="&lt;Group&gt;">
					<g id="&lt;Group&gt;">
						<path id="&lt;Path&gt;" class="s5" d="m610 855c0 22.1-14.6 40-32.6 40-18 0-32.6-17.9-32.6-40 0-22.1 14.6-40 32.6-40 18 0 32.6 17.9 32.6 40z"/>
						<path id="&lt;Path&gt;" class="s5" d="m628.4 855c0 22.1-15.6 40-34.8 40h-17.6v-80h17.6c19.2 0 34.8 17.9 34.8 40z"/>
						<path id="&lt;Path&gt;" class="s10" d="m579.3 817.3c20.4-1.1 30.7 20 31.2 37.7 0.6 13.5-5.6 28.3-18 34.8-4 2.1-8.7 3.2-13.2 2.9v-0.2c9-0.6 16.9-5.9 21.9-12.9 10.2-14 11.7-35.5 0.2-49.3-2.7-3.4-5.9-6.5-9.6-8.7-3.7-2.3-8-3.7-12.5-4.1z"/>
					</g>
					<g id="&lt;Group&gt;">
					</g>
					<g id="&lt;Group&gt;">
						<path id="&lt;Path&gt;" class="s4" d="m576.9 870.5c-9.2 0-16.7-7.1-17.2-16.2l-3.3-48h40.9l-3.3 48c-0.5 9.1-8 16.2-17.1 16.2z"/>
						<g id="&lt;Group&gt;">
							<path id="&lt;Path&gt;" class="s3" d="m569.6 860.7c-7.8-5.9-2.4-18.9 7.3-18.2 2.8 0.2 5.6 1.6 7.2 3.8-9.9-7.3-21.8 4.5-14.5 14.4z"/>
							<path id="&lt;Path&gt;" class="s6" d="m584.1 846.3c7.8 5.9 2.4 18.9-7.3 18.2-2.8-0.1-5.6-1.6-7.2-3.8 9.9 7.3 21.8-4.5 14.5-14.4z"/>
						</g>
					</g>
				</g>
				<g id="&lt;Group&gt;">
					<g id="&lt;Group&gt;">
						<path id="&lt;Path&gt;" class="s5" d="m758.9 855c0 22.1-14.6 40-32.6 40-18 0-32.6-17.9-32.6-40 0-22.1 14.6-40 32.6-40 18 0 32.6 17.9 32.6 40z"/>
						<path id="&lt;Path&gt;" class="s11" d="m758.9 855c0 22.1-14.6 40-32.6 40-18 0-32.6-17.9-32.6-40 0-22.1 14.6-40 32.6-40 18 0 32.6 17.9 32.6 40z"/>
						<path id="&lt;Path&gt;" class="s5" d="m777.3 855c0 22.1-15.6 40-34.7 40h-17.6v-80h17.6c19.1 0 34.7 17.9 34.7 40z"/>
						<path id="&lt;Path&gt;" class="s11" d="m777.3 855c0 22.1-15.6 40-34.7 40h-17.6v-80h17.6c19.1 0 34.7 17.9 34.7 40z"/>
						<path id="&lt;Path&gt;" class="s10" d="m728.3 817.3c20.4-1.1 30.6 20 31.2 37.7 0.6 13.5-5.6 28.3-18 34.8-4.1 2.1-8.7 3.2-13.2 2.9v-0.2c9-0.6 16.8-5.9 21.8-12.9 10.2-14 11.7-35.5 0.2-49.3-2.7-3.4-5.8-6.5-9.6-8.7-3.7-2.3-7.9-3.7-12.4-4.1z"/>
					</g>
					<g id="&lt;Group&gt;">
					</g>
					<g id="&lt;Group&gt;">
						<path id="&lt;Path&gt;" class="s4" d="m725.8 870.5c-9.1 0-16.7-7.1-17.1-16.2l-3.3-48h40.8l-3.2 48c-0.5 9.1-8.1 16.2-17.2 16.2z"/>
						<path id="&lt;Path&gt;" class="s6" d="m725.8 870.5c-9.1 0-16.7-7.1-17.1-16.2l-3.3-48h40.8l-3.2 48c-0.5 9.1-8.1 16.2-17.2 16.2z"/>
						<g id="&lt;Group&gt;">
							<path id="&lt;Path&gt;" class="s3" d="m719.9 859.4c-6.7-4.7-2.1-15.7 5.9-15 2.4 0.1 4.7 1.3 5.9 3.2-8.1-5.6-17.4 3.7-11.8 11.8z"/>
							<path id="&lt;Path&gt;" class="s6" d="m731.7 847.6c6.7 4.8 2.1 15.7-5.9 15.1-2.4-0.2-4.7-1.4-5.9-3.3 8.1 5.6 17.4-3.7 11.8-11.8z"/>
							<path id="&lt;Compound Path&gt;" fill-rule="evenodd" class="s6" d="m729.8 853.3c0.1 6.8-7.4 5.8-8.5 0-0.5-6.3 8.9-7 8.5 0zm-0.2 0c-0.3-3.8-6.5-3.9-7.2 0-0.2 0.9 0.1 1.9 0.9 2.5 0.7 0.7 1.7 0.7 2.5 0.6 1.6-0.3 3.8-1.1 3.8-3.1z"/>
						</g>
					</g>
				</g>
				<g id="&lt;Group&gt;">
					<g id="&lt;Group&gt;">
						<path id="&lt;Path&gt;" class="s5" d="m498 855c0 22.1-14.6 40-32.6 40-18 0-32.6-17.9-32.6-40 0-22.1 14.6-40 32.6-40 18 0 32.6 17.9 32.6 40z"/>
						<path id="&lt;Path&gt;" class="s11" d="m498 855c0 22.1-14.6 40-32.6 40-18 0-32.6-17.9-32.6-40 0-22.1 14.6-40 32.6-40 18 0 32.6 17.9 32.6 40z"/>
						<path id="&lt;Path&gt;" class="s5" d="m516.4 855c0 22.1-15.6 40-34.7 40h-17.6v-80h17.6c19.1 0 34.7 17.9 34.7 40z"/>
						<path id="&lt;Path&gt;" class="s11" d="m516.4 855c0 22.1-15.6 40-34.7 40h-17.6v-80h17.6c19.1 0 34.7 17.9 34.7 40z"/>
						<path id="&lt;Path&gt;" class="s10" d="m467.4 817.3c20.4-1.1 30.6 20 31.2 37.7 0.6 13.5-5.6 28.3-18 34.8-4.1 2.1-8.7 3.2-13.2 2.9v-0.2c9-0.6 16.8-5.9 21.8-12.9 10.2-14 11.7-35.5 0.2-49.3-2.7-3.4-5.8-6.5-9.6-8.7-3.7-2.3-7.9-3.7-12.4-4.1z"/>
					</g>
					<g id="&lt;Group&gt;">
					</g>
					<g id="&lt;Group&gt;">
						<path id="&lt;Path&gt;" class="s4" d="m464.9 870.5c-9.1 0-16.7-7.1-17.2-16.2l-3.2-48h40.8l-3.2 48c-0.5 9.1-8.1 16.2-17.2 16.2z"/>
						<path id="&lt;Path&gt;" class="s6" d="m464.9 870.5c-9.1 0-16.7-7.1-17.2-16.2l-3.2-48h40.8l-3.2 48c-0.5 9.1-8.1 16.2-17.2 16.2z"/>
						<g id="&lt;Group&gt;">
							<path id="&lt;Path&gt;" class="s3" d="m459 859.4c-6.7-4.7-2.1-15.7 5.9-15 2.4 0.1 4.7 1.3 5.9 3.2-8.1-5.6-17.4 3.7-11.8 11.8z"/>
							<path id="&lt;Path&gt;" class="s6" d="m470.8 847.6c6.7 4.8 2.1 15.7-5.9 15.1-2.4-0.2-4.7-1.4-5.9-3.3 8.1 5.6 17.4-3.7 11.8-11.8z"/>
							<path id="&lt;Compound Path&gt;" fill-rule="evenodd" class="s6" d="m468.9 853.3c0.1 6.8-7.4 5.8-8.5 0-0.5-6.3 8.9-7 8.5 0zm-0.2 0c-0.3-3.8-6.5-3.9-7.2 0-0.2 0.9 0.1 1.9 0.9 2.5 0.7 0.7 1.7 0.7 2.5 0.6 1.6-0.3 3.8-1.1 3.8-3.1z"/>
						</g>
					</g>
				</g>
				<g id="&lt;Group&gt;">
					<path id="&lt;Path&gt;" class="s1" d="m816 606.9l-124.7-0.1-437.4-26.6 0.4-8 437.4 26.7h124.3z"/>
					<g id="&lt;Group&gt;">
						<path id="&lt;Path&gt;" class="s2" d="m773.2 601.5q18.2-2.1 36.4 0-18.2 2.1-36.4 0z"/>
						<path id="&lt;Path&gt;" class="s2" d="m267.2 574.8c125.5 6.7 277.8 16.3 403.4 24.7 5 0.3 18.4 1.4 23.3 1.5 4.3 0 64.4 0.5 70 0.5-5.6 0-66.3 0.5-70 0.5-4.9 0-18.1-1-23.3-1.2-125.8-7.4-277.9-17-403.4-26z"/>
					</g>
				</g>
				<g id="&lt;Group&gt;">
					<path id="&lt;Path&gt;" class="s1" d="m848.1 492.2h-144.2q-0.2 0-0.4 0l-442.2-35.3c-2.2-0.2-3.8-2.1-3.7-4.3 0.2-2.2 2.1-3.8 4.3-3.7l442.1 35.3h144.1c2.3 0 4 1.8 4 4 0 2.2-1.7 4-4 4z"/>
					<path id="&lt;Path&gt;" class="s6" d="m852.1 488.2c0 2.2-1.7 4-4 4h-144.2q-0.2 0-0.4 0l-442.2-35.3c-2.2-0.2-3.8-2.1-3.7-4.3q0.1-0.7 0.4-1.4c0.6 1.1 1.8 1.8 3.1 1.9l442.2 35.4h144.6c1.6 0 3-1 3.6-2.4 0.4 0.7 0.6 1.4 0.6 2.1z"/>
					<g id="&lt;Group&gt;">
						<path id="&lt;Path&gt;" class="s2" d="m589 476.5q22.9-0.2 45.4 3.7-22.9 0.2-45.4-3.7z"/>
						<path id="&lt;Path&gt;" class="s2" d="m264.8 450.1c100.6 6.9 213.5 16.1 313.9 25.5-100.7-6.8-213.5-16-313.9-25.5z"/>
					</g>
				</g>
				<g id="&lt;Group&gt;">
					<path id="&lt;Path&gt;" class="s7" d="m711.7 570.3h105l18.1-86.8h-108.1z"/>
					<path id="&lt;Path&gt;" class="s6" d="m732.1 483.5l-15.1 86.9h-5.3l15-86.9z"/>
					<g id="&lt;Group&gt;" style="opacity: .1">
						<path id="&lt;Path&gt;" class="s8" d="m830 483.5l-86.9 86.8h-26.1l1-5.6 81.2-81.2z"/>
						<path id="&lt;Path&gt;" class="s8" d="m765.3 483.5l-40.2 40.2 2.8-16.3 24-23.9z"/>
						<path id="&lt;Path&gt;" class="s8" d="m821.7 546.4l-3.6 16.9-7 7h-13.4z"/>
						<path id="&lt;Path&gt;" class="s8" d="m831.1 501.2l-1 4.7-64.5 64.4h-3.6z"/>
						<path id="&lt;Path&gt;" class="s8" d="m774.2 483.5l-51 50.9 0.8-4.4 46.5-46.5z"/>
					</g>
				</g>
			</g>
			<g id="&lt;Group&gt;">
				<g id="&lt;Group&gt;">
					<g id="&lt;Group&gt;">
						<path id="&lt;Path&gt;" class="s7" d="m402.6 299.6c0 7.7-4.6 14-10.3 14h-8.6v-28.1h8.6c5.7 0 10.3 6.3 10.3 14.1z"/>
					</g>
					<g id="&lt;Group&gt;" style="opacity: .2">
						<path id="&lt;Path&gt;" class="s2" d="m402.6 299.6c0 7.7-4.6 14-10.3 14h-8.6v-28.1h8.6c5.7 0 10.3 6.3 10.3 14.1z"/>
					</g>
				</g>
				<g id="&lt;Group&gt;">
					<path id="&lt;Path&gt;" class="s7" d="m394 299.5c0 7.8-4.6 14.1-10.3 14.1-5.8 0-10.4-6.3-10.4-14.1 0-7.7 4.6-14 10.4-14 5.7 0 10.3 6.3 10.3 14z"/>
					<path id="&lt;Path&gt;" class="s6" d="m394 299.5c0 7.8-4.6 14.1-10.3 14.1-5.8 0-10.4-6.3-10.4-14.1 0-7.7 4.6-14 10.4-14 5.7 0 10.3 6.3 10.3 14z"/>
				</g>
			</g>
			<g id="&lt;Group&gt;">
				<path id="&lt;Path&gt;" class="s7" d="m379.7 307.5h-185.6c-4.4 0-7.9-3.5-7.9-8 0-4.4 3.5-7.9 7.9-7.9h185.6c4.4 0 7.9 3.5 7.9 7.9 0 4.5-3.5 8-7.9 8z"/>
				<path id="&lt;Path&gt;" class="s6" d="m387.6 299.5c0 2.3-0.8 4.2-2.3 5.7-1.4 1.4-3.4 2.3-5.6 2.3h-185.6c-4.4 0-7.9-3.5-7.9-8 0-2 0.8-3.9 2.1-5.3q-0.1 0.5-0.1 1c0 4.4 3.5 8 8 8h177.3c2.3 0 4.2-0.9 5.7-2.3 1.4-1.5 2.3-3.5 2.3-5.7 0-1.3-0.3-2.5-0.8-3.6 3.9 0.5 6.9 3.9 6.9 7.9z"/>
				<path id="&lt;Path&gt;" class="s2" d="m201.9 295.1c53-1.3 109-1.3 162 0-53.1 1.3-109 1.4-162 0z"/>
			</g>
			<g id="&lt;Group&gt;">
				<g id="&lt;Group&gt;">
					<g id="&lt;Group&gt;">
						<path id="&lt;Path&gt;" class="s7" d="m223.6 327.5l-41.2 23.7h-11.5l-4.3-34.4c-5.6-9.7-3.6-21.6 4.1-29v-6.7h11.5q0.4 0 0.9 0c8.3 0 16.3 4.3 20.7 11.9z"/>
					</g>
					<g id="&lt;Group&gt;" style="opacity: .1">
						<path id="&lt;Path&gt;" class="s8" d="m223.6 327.5l-41.2 23.7h-11.5l-4.3-34.4c-5.6-9.7-3.6-21.6 4.1-29v-6.7h11.5q0.4 0 0.9 0c8.3 0 16.3 4.3 20.7 11.9z"/>
					</g>
				</g>
				<g id="&lt;Group&gt;">
					<path id="&lt;Path&gt;" class="s7" d="m212.1 327.5l-41.2 23.7-19.9-34.4c-6.5-11.4-2.6-25.9 8.8-32.5 11.4-6.6 25.9-2.7 32.5 8.7z"/>
				</g>
				<path id="&lt;Path&gt;" class="s6" d="m172.6 302.2c0 2.3-1.8 4.2-4.2 4.2-2.3 0-4.2-1.9-4.2-4.2 0-2.3 1.9-4.2 4.2-4.2 2.4 0 4.2 1.9 4.2 4.2z"/>
				<path id="&lt;Path&gt;" class="s2" d="m169.2 282.7c10.4-3.1 20 5.4 24.4 14.2 3.5 6.2 7.2 13.3 10.4 19.7 1 2.3 2.2 4.5 3.2 6.8-1.4-2.1-2.7-4.2-4.1-6.3l-3.8-6.4c-7.3-11.5-13.4-29.9-30.1-28z"/>
			</g>
		</g>
	</g>
	<g id="Stars">
		<g id="&lt;Group&gt;">
			<g id="&lt;Group&gt;">
				<path id="&lt;Path&gt;" class="s7" d="m770.9 497.1l14.8 2.7 3.3 15.6 3.3-15.6 14.8-2.7-14.7-3.6-3.4-14.8-3.3 14.8z"/>
				<path id="&lt;Path&gt;" class="s7" d="m376.3 315l8.3 1.5 1.8 8.7 1.9-8.7 8.2-1.5-8.2-2-1.9-8.3-1.9 8.3z"/>
				<path id="&lt;Path&gt;" class="s7" d="m177.8 316.7l8.3 1.5 1.8 8.7 1.9-8.7 8.2-1.5-8.2-2-1.9-8.3-1.9 8.3z"/>
				<path id="&lt;Path&gt;" class="s7" d="m312.3 681.8l8.3 1.6 1.8 8.7 1.9-8.7 8.2-1.6-8.2-2-1.9-8.2-1.9 8.2z"/>
				<path id="&lt;Path&gt;" class="s7" d="m810.8 520.1l8.3 1.6 1.9 8.7 1.8-8.7 8.3-1.6-8.3-2-1.8-8.2-1.9 8.2z"/>
				<path id="&lt;Path&gt;" class="s7" d="m334.4 550.5l8.2 1.5 1.9 8.7 1.8-8.7 8.3-1.5-8.2-2-1.9-8.3-1.9 8.3z"/>
				<path id="&lt;Path&gt;" class="s7" d="m557.3 817.3l8.3 1.5 1.8 8.7 1.9-8.7 8.3-1.5-8.3-2-1.9-8.3-1.8 8.3z"/>
				<path id="&lt;Path&gt;" class="s7" d="m367.3 855.6l8.3 1.5 1.9 8.7 1.8-8.7 8.3-1.5-8.3-2-1.8-8.3-1.9 8.3z"/>
				<path id="&lt;Path&gt;" class="s7" d="m428.9 312.6c3.1 0 3.1 4.8 0 4.8-3 0-3.1-4.8 0-4.8z"/>
				<path id="&lt;Path&gt;" class="s7" d="m577.4 834c3.1 0 3.1 4.8 0 4.8-3.1 0-3.1-4.8 0-4.8z"/>
				<path id="&lt;Path&gt;" class="s7" d="m433.9 535.8c3 0 3 4.8 0 4.8-3.1 0-3.1-4.8 0-4.8z"/>
				<path id="&lt;Path&gt;" class="s7" d="m170.6 329.9c2.1 0 2.1 3.4 0 3.4-2.2 0-2.2-3.4 0-3.4z"/>
				<path id="&lt;Path&gt;" class="s7" d="m718.5 821.7c2.2 0 2.2 3.4 0 3.4-2.2 0-2.2-3.4 0-3.4z"/>
				<path id="&lt;Path&gt;" class="s7" d="m358 560.7c2.1 0 2.1 3.3 0 3.3-2.2 0-2.2-3.3 0-3.3z"/>
				<path id="&lt;Path&gt;" class="s7" d="m797 550.6c2.2 0 2.2 3.4 0 3.4-2.1 0-2.1-3.4 0-3.4z"/>
				<path id="&lt;Path&gt;" class="s7" d="m364 834.7c2.2 0 2.2 3.4 0 3.4-2.2 0-2.2-3.4 0-3.4z"/>
				<path id="&lt;Path&gt;" class="s7" d="m744.2 538.1c2.2 0 2.2 3.4 0 3.4-2.2 0-2.2-3.4 0-3.4z"/>
				<path id="&lt;Path&gt;" class="s7" d="m499.4 668.5c2.2 0 2.2 3.4 0 3.4-2.2 0-2.2-3.4 0-3.4z"/>
				<path id="&lt;Path&gt;" class="s7" d="m401.5 332.8c2.1 0 2.2 3.3 0 3.3-2.2 0-2.2-3.3 0-3.3z"/>
			</g>
			<g id="&lt;Group&gt;" style="opacity: .8">
				<path id="&lt;Path&gt;" class="s2" d="m770.9 497.1l14.8 2.7 3.3 15.6 3.3-15.6 14.8-2.7-14.7-3.6-3.4-14.8-3.3 14.8z"/>
				<path id="&lt;Path&gt;" class="s2" d="m376.3 315l8.3 1.5 1.8 8.7 1.9-8.7 8.2-1.5-8.2-2-1.9-8.3-1.9 8.3z"/>
				<path id="&lt;Path&gt;" class="s2" d="m177.8 316.7l8.3 1.5 1.8 8.7 1.9-8.7 8.2-1.5-8.2-2-1.9-8.3-1.9 8.3z"/>
				<path id="&lt;Path&gt;" class="s2" d="m312.3 681.8l8.3 1.6 1.8 8.7 1.9-8.7 8.2-1.6-8.2-2-1.9-8.2-1.9 8.2z"/>
				<path id="&lt;Path&gt;" class="s2" d="m810.8 520.1l8.3 1.6 1.9 8.7 1.8-8.7 8.3-1.6-8.3-2-1.8-8.2-1.9 8.2z"/>
				<path id="&lt;Path&gt;" class="s2" d="m334.4 550.5l8.2 1.5 1.9 8.7 1.8-8.7 8.3-1.5-8.2-2-1.9-8.3-1.9 8.3z"/>
				<path id="&lt;Path&gt;" class="s2" d="m557.3 817.3l8.3 1.5 1.8 8.7 1.9-8.7 8.3-1.5-8.3-2-1.9-8.3-1.8 8.3z"/>
				<path id="&lt;Path&gt;" class="s2" d="m367.3 855.6l8.3 1.5 1.9 8.7 1.8-8.7 8.3-1.5-8.3-2-1.8-8.3-1.9 8.3z"/>
				<path id="&lt;Path&gt;" class="s2" d="m428.9 312.6c3.1 0 3.1 4.8 0 4.8-3 0-3.1-4.8 0-4.8z"/>
				<path id="&lt;Path&gt;" class="s7" d="m177.8 305.1c3.1 0 3.1 4.8 0 4.8-3.1 0-3.1-4.8 0-4.8z"/>
				<path id="&lt;Path&gt;" class="s2" d="m177.8 305.1c3.1 0 3.1 4.8 0 4.8-3.1 0-3.1-4.8 0-4.8z"/>
				<path id="&lt;Path&gt;" class="s2" d="m577.4 834c3.1 0 3.1 4.8 0 4.8-3.1 0-3.1-4.8 0-4.8z"/>
				<path id="&lt;Path&gt;" class="s2" d="m433.9 535.8c3 0 3 4.8 0 4.8-3.1 0-3.1-4.8 0-4.8z"/>
				<path id="&lt;Path&gt;" class="s2" d="m170.6 329.9c2.1 0 2.1 3.4 0 3.4-2.2 0-2.2-3.4 0-3.4z"/>
				<path id="&lt;Path&gt;" class="s2" d="m718.5 821.7c2.2 0 2.2 3.4 0 3.4-2.2 0-2.2-3.4 0-3.4z"/>
				<path id="&lt;Path&gt;" class="s2" d="m358 560.7c2.1 0 2.1 3.3 0 3.3-2.2 0-2.2-3.3 0-3.3z"/>
				<path id="&lt;Path&gt;" class="s2" d="m797 550.6c2.2 0 2.2 3.4 0 3.4-2.1 0-2.1-3.4 0-3.4z"/>
				<path id="&lt;Path&gt;" class="s2" d="m364 834.7c2.2 0 2.2 3.4 0 3.4-2.2 0-2.2-3.4 0-3.4z"/>
				<path id="&lt;Path&gt;" class="s2" d="m744.2 538.1c2.2 0 2.2 3.4 0 3.4-2.2 0-2.2-3.4 0-3.4z"/>
				<path id="&lt;Path&gt;" class="s2" d="m499.4 668.5c2.2 0 2.2 3.4 0 3.4-2.2 0-2.2-3.4 0-3.4z"/>
				<path id="&lt;Path&gt;" class="s2" d="m401.5 332.8c2.1 0 2.2 3.3 0 3.3-2.2 0-2.2-3.3 0-3.3z"/>
			</g>
		</g>
	</g>
</svg>